Basic.Instinct.2.2006.720p.BRRip.x264.aac.mp4.anoXmous

Format                           : MPEG-4
Format profile                   : Base Media
Codec ID                         : isom
File size                        : 896 MiB
Duration                         : 1h 54mn
Overall bit rate mode            : Variable
Overall bit rate                 : 1 098 Kbps


Video
ID                               : 1
Format                           : AVC
Format/Info                      : Advanced Video Codec
Format profile                   : High@L4.1
Format settings, CABAC           : Yes
Format settings, ReFrames        : 4 frames
Codec ID                         : avc1
Codec ID/Info                    : Advanced Video Coding
Duration                         : 1h 54mn
Bit rate                         : 1 028 Kbps
Maximum bit rate                 : 9 548 Kbps
Width                            : 1 920 pixels
Height                           : 798 pixels
Display aspect ratio             : 2.40:1
Frame rate mode                  : Constant
Frame rate                       : 23.976 fps
Color space                      : YUV
Chroma subsampling               : 4:2:0
Bit depth                        : 8 bits
Scan type                        : Progressive
Bits/(Pixel*Frame)               : 0.028
Stream size                      : 838 MiB (94%)
Writing library                  : x264 core 120 r2120 0c7dab9



Audio
ID                               : 2
Format                           : AAC
Format/Info                      : Advanced Audio Codec
Format profile                   : LC
Codec ID                         : 40
Duration                         : 1h 54mn
Bit rate mode                    : Variable
Bit rate                         : 67.6 Kbps
Maximum bit rate                 : 86.8 Kbps
Channel(s)                       : 2 channels
Channel positions                : Front: L R
Sampling rate                    : 48.0 KHz / 24.0 KHz
Compression mode                 : Lossy
Stream size                      : 55.1 MiB (6%)

                              SUB:
Basic.Instinct.2.2006.720p.BRRip.x264.aac.mp4.anoXmous_swe.srt

           http://www.imdb.com/title/tt0430912/

+++++++++ This work very fine with PSP and XBOX :) ++++++++++